<svg width="30" height="31" viewBox="0 0 30 31" fill="none" xmlns="http://www.w3.org/2000/svg">
<path d="M15 0C23.2843 0 30 6.74108 30 15.0254V15.0254C30 23.3096 23.2843 30.0507 15 30.0507V30.0507C6.71573 30.0507 -8.9407e-07 23.3096 -8.9407e-07 15.0254V15.0254C-8.9407e-07 6.74108 6.71573 0 15 0V0Z" fill="white"/>
<path d="M10.47 24.48C7.2 22.94 4.86 19.76 4.5 16H3C3.51 22.16 8.66 27 14.95 27L15.61 26.97L11.8 23.16L10.47 24.48ZM11.36 17.96C11.17 17.96 10.99 17.93 10.84 17.88C10.68 17.82 10.55 17.75 10.44 17.64C10.33 17.54 10.24 17.42 10.18 17.27C10.12 17.13 10.09 16.97 10.09 16.8H8.79C8.79 17.16 8.86 17.48 9 17.75C9.14 18.02 9.33 18.25 9.56 18.44C9.8 18.62 10.07 18.76 10.38 18.85C10.68 18.95 11 19 11.34 19C11.71 19 12.06 18.95 12.37 18.85C12.69 18.75 12.97 18.6 13.2 18.41C13.43 18.22 13.62 17.98 13.75 17.69C13.88 17.4 13.95 17.08 13.95 16.72C13.95 16.53 13.93 16.34 13.88 16.16C13.83 15.98 13.76 15.81 13.65 15.65C13.55 15.49 13.41 15.35 13.25 15.22C13.08 15.09 12.88 14.99 12.64 14.91C12.84 14.82 13.01 14.71 13.16 14.58C13.31 14.45 13.43 14.31 13.53 14.16C13.63 14.01 13.7 13.86 13.75 13.7C13.8 13.54 13.82 13.38 13.82 13.22C13.82 12.86 13.76 12.54 13.64 12.26C13.52 11.98 13.35 11.75 13.13 11.57C12.93 11.38 12.66 11.24 12.36 11.14C12.05 11.05 11.71 11 11.34 11C10.98 11 10.65 11.05 10.34 11.16C10.04 11.27 9.77 11.42 9.55 11.61C9.34 11.8 9.17 12.02 9.04 12.28C8.92 12.54 8.86 12.82 8.86 13.13H10.16C10.16 12.96 10.19 12.81 10.25 12.68C10.31 12.55 10.39 12.43 10.5 12.34C10.61 12.25 10.73 12.17 10.88 12.12C11.03 12.07 11.18 12.04 11.36 12.04C11.76 12.04 12.06 12.14 12.25 12.35C12.44 12.55 12.54 12.84 12.54 13.21C12.54 13.39 12.51 13.55 12.46 13.7C12.41 13.85 12.32 13.97 12.21 14.07C12.1 14.17 11.96 14.25 11.8 14.31C11.64 14.37 11.44 14.4 11.22 14.4H10.45V15.43H11.22C11.44 15.43 11.64 15.45 11.82 15.5C12 15.55 12.15 15.63 12.27 15.73C12.39 15.84 12.49 15.97 12.56 16.13C12.63 16.29 12.66 16.48 12.66 16.7C12.66 17.11 12.54 17.42 12.31 17.63C12.08 17.86 11.76 17.96 11.36 17.96V17.96ZM19.91 12.04C19.59 11.71 19.21 11.45 18.77 11.27C18.34 11.09 17.85 11 17.31 11H14.95V19H17.25C17.8 19 18.31 18.91 18.76 18.73C19.21 18.55 19.6 18.3 19.92 17.97C20.24 17.64 20.49 17.24 20.66 16.78C20.83 16.31 20.92 15.79 20.92 15.21V14.81C20.92 14.23 20.83 13.71 20.66 13.24C20.48 12.77 20.23 12.37 19.91 12.04V12.04ZM19.52 15.2C19.52 15.62 19.47 15.99 19.38 16.33C19.28 16.66 19.14 16.95 18.95 17.18C18.76 17.41 18.52 17.59 18.24 17.71C17.95 17.83 17.62 17.89 17.25 17.89H16.34V12.12H17.31C18.03 12.12 18.58 12.35 18.95 12.81C19.33 13.27 19.52 13.93 19.52 14.8V15.2V15.2ZM14.95 3L14.29 3.03L18.1 6.84L19.43 5.51C22.7 7.06 25.04 10.23 25.39 13.99H26.89C26.39 7.84 21.24 3 14.95 3Z" fill="black"/>
</svg>
