<svg width="30" height="31" viewBox="0 0 30 31" fill="none" xmlns="http://www.w3.org/2000/svg">
<path d="M0 15.7724C0 24.0567 6.71573 30.7978 15 30.7978C23.2843 30.7978 30 24.0567 30 15.7724C30 7.48815 23.2843 0.74707 15 0.74707C6.71573 0.74707 0 7.48815 0 15.7724Z" fill="white"/>
<path d="M19.7627 17.0258V19.3739H10.3871V17.0258H8.82489V19.3739C8.82624 19.7886 8.99127 20.1857 9.28393 20.4789C9.57661 20.7721 9.97314 20.9374 10.3871 20.9387H19.7627C20.1766 20.9374 20.5732 20.7721 20.8658 20.4789C21.1585 20.1857 21.3235 19.7886 21.3249 19.3739V17.0258H19.7627ZM18.9816 13.8953L17.8797 12.7881L15.8564 14.8072V8.4176H14.2934V14.8115L12.27 12.7881L11.169 13.8953L15.0753 17.8083L18.9816 13.8953Z" fill="#0C0D0D"/>
</svg>
