<svg width="30" height="31" viewBox="0 0 30 31" fill="none" xmlns="http://www.w3.org/2000/svg">
<path d="M0 15.6163C0 7.33202 6.71573 0.590942 15 0.590942V0.590942C23.2843 0.590942 30 7.33202 30 15.6163V15.6163C30 23.9006 23.2843 30.6416 15 30.6416V30.6416C6.71573 30.6416 0 23.9006 0 15.6163V15.6163Z" fill="white"/>
<path d="M14.8195 22.3999L7.17317 16.7796L5.49261 18.0151L14.8301 24.8818L24.1676 18.0151L22.4764 16.768L14.8195 22.3999ZM14.8301 19.9087L22.4658 14.2884L24.1676 13.0428L14.8301 6.17529L5.49261 13.042L7.1838 14.2876L14.8301 19.9087ZM14.8301 8.65723L20.7852 13.042L14.8301 17.4267L8.87498 13.042L14.8301 8.65723V8.65723Z" fill="#0C0D0D"/>
</svg>
