<svg width="30" height="31" viewBox="0 0 25 24" fill="none" xmlns="http://www.w3.org/2000/svg">
<path d="M0 12C0 5.37258 5.37258 0 12 0H13C19.6274 0 25 5.37258 25 12V12C25 18.6274 19.6274 24 13 24H12C5.37258 24 0 18.6274 0 12V12Z" fill="white"/>
<path d="M16.4644 9.11111L12.5 5.59998L8.53555 9.11111C7.44288 10.0806 6.89655 11.3732 6.89655 12.616C6.89655 13.8589 7.44288 15.1701 8.53555 16.1396C9.62823 17.109 11.0641 17.6 12.5 17.6C13.9359 17.6 15.3718 17.109 16.4644 16.1396C17.5571 15.1701 18.1034 13.8589 18.1034 12.616C18.1034 11.3732 17.5571 10.0806 16.4644 9.11111ZM8.29741 12.8397C8.30441 11.5969 8.73167 10.8076 9.53017 10.1054L12.5 7.41458L15.4698 10.1365C16.2683 10.8325 16.6956 11.5969 16.7026 12.8397H8.29741Z" fill="black"/>
</svg>
