<svg width="30" height="31" viewBox="0 0 30 31" fill="none" xmlns="http://www.w3.org/2000/svg">
<path d="M15 0C23.2843 0 30 6.74108 30 15.0254C30 23.3096 23.2843 30.0507 15 30.0507C6.71573 30.0507 0 23.3096 0 15.0254C0 6.74108 6.71573 0 15 0Z" fill="white"/>
<path d="M20.6 12.8889H9.4C8.072 12.8889 7 13.9311 7 15.2222V19.8889H10.2V23H19.8V19.8889H23V15.2222C23 13.9311 21.928 12.8889 20.6 12.8889ZM18.2 21.4444H11.8V17.5556H18.2V21.4444ZM20.6 16C20.16 16 19.8 15.65 19.8 15.2222C19.8 14.7944 20.16 14.4444 20.6 14.4444C21.04 14.4444 21.4 14.7944 21.4 15.2222C21.4 15.65 21.04 16 20.6 16ZM19.8 9H10.2V12.1111H19.8V9Z" fill="black"/>
</svg>
