<svg width="17" height="21" viewBox="0 0 17 21" fill="none" xmlns="http://www.w3.org/2000/svg">
<path d="M8.5 0C3.7763 0 0 3.49863 0 7.875C0 9.38848 0.486979 10.5574 1.33255 11.7428L7.60573 20.5611C7.79609 20.8277 8.1237 21 8.5 21C8.8763 21 9.20833 20.8236 9.39427 20.5611L15.6674 11.7428C16.513 10.5574 17 9.38848 17 7.875C17 3.49863 13.2237 0 8.5 0ZM8.5 12.2473C5.89245 12.2473 3.7763 10.2867 3.7763 7.8668C3.7763 5.44688 5.89245 3.48633 8.5 3.48633C11.1076 3.48633 13.2237 5.44688 13.2237 7.8668C13.2237 10.2867 11.1076 12.2473 8.5 12.2473ZM8.5 5.25C6.93281 5.25 5.66667 6.42305 5.66667 7.875C5.66667 9.32695 6.93281 10.5 8.5 10.5C10.0672 10.5 11.3333 9.32695 11.3333 7.875C11.3333 6.42305 10.0672 5.25 8.5 5.25Z" fill="#D92DDD"/>
</svg>
