<svg width="839" height="918" viewBox="0 0 839 918" fill="none" xmlns="http://www.w3.org/2000/svg">
<path d="M266.5 11.5H78.5L61 1H31.5L21 6.5L13.5 11.5L1 35.5V44.5V69L9.5 84.5V438.5L1 457.5V482.5L13.5 508L21 517H31.5H61L78.5 508L82 512L266.5 508L284 517H319.5L333 508L344.5 482.5V453L333 437V323.5V196V84.5L344.5 63.5V35.5L333 11.5L319.5 1H306.5H284L266.5 11.5Z" fill="#0C0D0D" stroke="black"/>
<path d="M32 20L23 38V478.5L32 489L37.5 497.5L317 493L323.5 478.5V38L312 20H32Z" stroke="#FEFEFE"/>
</svg>
