<svg width="400" height="1000" viewBox="0 0 642 820" fill="none" xmlns="http://www.w3.org/2000/svg">
<path d="M495.672 17.6453H145.396L112.79 1H57.8268L38.2635 9.71899L24.2897 17.6453L1 55.6919V69.9593V108.798L16.837 133.37V694.556L1 724.676V764.308L24.2897 804.733L38.2635 819H57.8268H112.79L145.396 804.733L151.917 811.074L495.672 804.733L528.278 819H594.421L619.574 804.733L641 764.308V717.543L619.574 692.178V512.25V310.128V133.37L641 100.079V55.6919L619.574 17.6453L594.421 1H570.199H528.278L495.672 17.6453Z" fill="#0C0D0D" stroke="black"/>
<path d="M58.7584 31.1201L41.9898 59.655V757.967L58.7584 774.612L69.0058 788.087L589.763 780.953L601.873 757.967V59.655L580.447 31.1201H58.7584Z" stroke="#FEFEFE"/>
</svg>
