<svg width="30" height="31" viewBox="0 0 30 31" fill="none" xmlns="http://www.w3.org/2000/svg">
<path d="M0 15C0 6.71573 6.71573 0 15 0V0C23.2843 0 30 6.71573 30 15V15.5C30 23.7843 23.2843 30.5 15 30.5V30.5C6.71573 30.5 0 23.7843 0 15.5V15Z" fill="white"/>
<g clip-path="url(#clip0_501_26)">
<path d="M18.3 10.3223L19.8105 11.8378L21.15 10.4844L17.35 6.67188L13.55 10.4844L14.8895 11.8283L16.4 10.3223V16.2031H8.80002C7.75502 16.2031 6.90002 17.0609 6.90002 18.1094V23.8281H8.80002V18.1094H16.4C17.445 18.1094 18.3 17.2516 18.3 16.2031V10.3223Z" fill="black"/>
</g>
<defs>
<clipPath id="clip0_501_26">
<rect width="22.8" height="22.875" fill="white" transform="translate(1.20001 3.8125)"/>
</clipPath>
</defs>
</svg>
