<svg width="251" height="37" viewBox="0 0 251 37" fill="none" xmlns="http://www.w3.org/2000/svg">
<path d="M31.3239 12.8693H24.9489C24.767 11.8239 24.4318 10.8977 23.9432 10.0909C23.4545 9.27273 22.8466 8.57954 22.1193 8.01136C21.392 7.44318 20.5625 7.01704 19.6307 6.73295C18.7102 6.4375 17.7159 6.28977 16.6477 6.28977C14.75 6.28977 13.0682 6.76705 11.6023 7.72159C10.1364 8.66477 8.98864 10.0511 8.15909 11.8807C7.32955 13.6989 6.91477 15.9205 6.91477 18.5455C6.91477 21.2159 7.32955 23.4659 8.15909 25.2955C9 27.1136 10.1477 28.4886 11.6023 29.4205C13.0682 30.3409 14.7443 30.8011 16.6307 30.8011C17.6761 30.8011 18.6534 30.6648 19.5625 30.392C20.483 30.108 21.3068 29.6932 22.0341 29.1477C22.7727 28.6023 23.392 27.9318 23.892 27.1364C24.4034 26.3409 24.7557 25.4318 24.9489 24.4091L31.3239 24.4432C31.0852 26.1023 30.5682 27.6591 29.7727 29.1136C28.9886 30.5682 27.9602 31.8523 26.6875 32.9659C25.4148 34.0682 23.9261 34.9318 22.2216 35.5568C20.517 36.1705 18.625 36.4773 16.5455 36.4773C13.4773 36.4773 10.7386 35.767 8.32955 34.3466C5.92045 32.9261 4.02273 30.875 2.63636 28.1932C1.25 25.5114 0.556818 22.2955 0.556818 18.5455C0.556818 14.7841 1.25568 11.5682 2.65341 8.89773C4.05114 6.21591 5.95455 4.16477 8.36364 2.74432C10.7727 1.32386 13.5 0.613635 16.5455 0.613635C18.4886 0.613635 20.2955 0.886362 21.9659 1.43182C23.6364 1.97727 25.125 2.77841 26.4318 3.83523C27.7386 4.88068 28.8125 6.16477 29.6534 7.6875C30.5057 9.19886 31.0625 10.9261 31.3239 12.8693ZM36.8423 36V9.81818H42.8253V14.1818H43.098C43.5753 12.6705 44.3935 11.5057 45.5526 10.6875C46.723 9.85795 48.0582 9.44318 49.5582 9.44318C49.8991 9.44318 50.2798 9.46023 50.7003 9.49432C51.1321 9.51704 51.4901 9.55682 51.7741 9.61364V15.2898C51.5128 15.1989 51.098 15.1193 50.5298 15.0511C49.973 14.9716 49.4332 14.9318 48.9105 14.9318C47.7855 14.9318 46.7741 15.1761 45.8764 15.6648C44.9901 16.142 44.2912 16.8068 43.7798 17.6591C43.2685 18.5114 43.0128 19.4943 43.0128 20.608V36H36.8423ZM62.9389 36.5284C61.2798 36.5284 59.7855 36.233 58.456 35.642C57.1378 35.0398 56.0923 34.1534 55.3196 32.983C54.5582 31.8125 54.1776 30.3693 54.1776 28.6534C54.1776 27.1761 54.4503 25.9545 54.9957 24.9886C55.5412 24.0227 56.2855 23.25 57.2287 22.6705C58.1719 22.0909 59.2344 21.6534 60.4162 21.358C61.6094 21.0511 62.8423 20.8295 64.1151 20.6932C65.6491 20.5341 66.8935 20.392 67.848 20.267C68.8026 20.1307 69.4957 19.9261 69.9276 19.6534C70.3707 19.3693 70.5923 18.9318 70.5923 18.3409V18.2386C70.5923 16.9545 70.2116 15.9602 69.4503 15.2557C68.6889 14.5511 67.5923 14.1989 66.1605 14.1989C64.6491 14.1989 63.4503 14.5284 62.5639 15.1875C61.6889 15.8466 61.098 16.625 60.7912 17.5227L55.0298 16.7045C55.4844 15.1136 56.2344 13.7841 57.2798 12.7159C58.3253 11.6364 59.6037 10.8295 61.1151 10.2955C62.6264 9.75 64.2969 9.47727 66.1264 9.47727C67.3878 9.47727 68.6435 9.625 69.8935 9.92045C71.1435 10.2159 72.2855 10.7045 73.3196 11.3864C74.3537 12.0568 75.1832 12.9716 75.8082 14.1307C76.4446 15.2898 76.7628 16.7386 76.7628 18.4773V36H70.831V32.4034H70.6264C70.2514 33.1307 69.723 33.8125 69.0412 34.4489C68.3707 35.0739 67.5241 35.5795 66.5014 35.9659C65.4901 36.3409 64.3026 36.5284 62.9389 36.5284ZM64.5412 31.9943C65.7798 31.9943 66.8537 31.75 67.7628 31.2614C68.6719 30.7614 69.3707 30.1023 69.8594 29.2841C70.3594 28.4659 70.6094 27.5739 70.6094 26.608V23.5227C70.4162 23.6818 70.0866 23.8295 69.6207 23.9659C69.1662 24.1023 68.6548 24.2216 68.0866 24.3239C67.5185 24.4261 66.956 24.517 66.3991 24.5966C65.8423 24.6761 65.3594 24.7443 64.9503 24.8011C64.0298 24.9261 63.206 25.1307 62.4787 25.4148C61.7514 25.6989 61.1776 26.0966 60.7571 26.608C60.3366 27.108 60.1264 27.7557 60.1264 28.5511C60.1264 29.6875 60.5412 30.5455 61.3707 31.125C62.2003 31.7045 63.2571 31.9943 64.5412 31.9943ZM103.661 16.7386L98.0355 17.3523C97.8764 16.7841 97.598 16.25 97.2003 15.75C96.8139 15.25 96.2912 14.8466 95.6321 14.5398C94.973 14.233 94.1662 14.0795 93.2116 14.0795C91.9276 14.0795 90.848 14.358 89.973 14.9148C89.1094 15.4716 88.6832 16.1932 88.6946 17.0795C88.6832 17.8409 88.9616 18.4602 89.5298 18.9375C90.1094 19.4148 91.0639 19.8068 92.3935 20.1136L96.8594 21.0682C99.3366 21.6023 101.178 22.4489 102.382 23.608C103.598 24.767 104.212 26.2841 104.223 28.1591C104.212 29.8068 103.729 31.2614 102.774 32.5227C101.831 33.7727 100.518 34.75 98.8366 35.4545C97.1548 36.1591 95.223 36.5114 93.0412 36.5114C89.8366 36.5114 87.2571 35.8409 85.3026 34.5C83.348 33.1477 82.1832 31.267 81.8082 28.858L87.8253 28.2784C88.098 29.4602 88.6776 30.3523 89.5639 30.9545C90.4503 31.5568 91.6037 31.858 93.0241 31.858C94.4901 31.858 95.6662 31.5568 96.5526 30.9545C97.4503 30.3523 97.8991 29.608 97.8991 28.7216C97.8991 27.9716 97.6094 27.3523 97.0298 26.8636C96.4616 26.375 95.5753 26 94.3707 25.7386L89.9048 24.8011C87.3935 24.2784 85.5355 23.3977 84.331 22.1591C83.1264 20.9091 82.5298 19.3295 82.5412 17.4205C82.5298 15.8068 82.9673 14.4091 83.8537 13.2273C84.7514 12.0341 85.9957 11.1136 87.5866 10.4659C89.1889 9.80682 91.0355 9.47727 93.1264 9.47727C96.1946 9.47727 98.6094 10.1307 100.371 11.4375C102.143 12.7443 103.24 14.5114 103.661 16.7386ZM115.482 20.6591V36H109.311V1.09091H115.345V14.267H115.652C116.266 12.7898 117.214 11.625 118.499 10.7727C119.794 9.90909 121.442 9.47727 123.442 9.47727C125.26 9.47727 126.845 9.85795 128.197 10.6193C129.55 11.3807 130.595 12.4943 131.334 13.9602C132.084 15.4261 132.459 17.2159 132.459 19.3295V36H126.288V20.2841C126.288 18.5227 125.834 17.1534 124.925 16.1761C124.027 15.1875 122.766 14.6932 121.141 14.6932C120.05 14.6932 119.072 14.9318 118.209 15.4091C117.357 15.875 116.686 16.5511 116.197 17.4375C115.72 18.3239 115.482 19.3977 115.482 20.6591ZM150.851 36H139.021V1.09091H151.089C154.555 1.09091 157.533 1.78977 160.021 3.1875C162.521 4.57386 164.442 6.56818 165.783 9.17045C167.124 11.7727 167.794 14.8864 167.794 18.5114C167.794 22.1477 167.118 25.2727 165.766 27.8864C164.425 30.5 162.487 32.5057 159.953 33.9034C157.43 35.3011 154.396 36 150.851 36ZM145.345 30.5284H150.544C152.976 30.5284 155.004 30.0852 156.629 29.1989C158.254 28.3011 159.476 26.9659 160.294 25.1932C161.112 23.4091 161.521 21.1818 161.521 18.5114C161.521 15.8409 161.112 13.625 160.294 11.8636C159.476 10.0909 158.266 8.76705 156.663 7.89205C155.072 7.00568 153.095 6.5625 150.732 6.5625H145.345V30.5284ZM181.064 36.5284C179.405 36.5284 177.911 36.233 176.581 35.642C175.263 35.0398 174.217 34.1534 173.445 32.983C172.683 31.8125 172.303 30.3693 172.303 28.6534C172.303 27.1761 172.575 25.9545 173.121 24.9886C173.666 24.0227 174.411 23.25 175.354 22.6705C176.297 22.0909 177.359 21.6534 178.541 21.358C179.734 21.0511 180.967 20.8295 182.24 20.6932C183.774 20.5341 185.018 20.392 185.973 20.267C186.928 20.1307 187.621 19.9261 188.053 19.6534C188.496 19.3693 188.717 18.9318 188.717 18.3409V18.2386C188.717 16.9545 188.337 15.9602 187.575 15.2557C186.814 14.5511 185.717 14.1989 184.286 14.1989C182.774 14.1989 181.575 14.5284 180.689 15.1875C179.814 15.8466 179.223 16.625 178.916 17.5227L173.155 16.7045C173.609 15.1136 174.359 13.7841 175.405 12.7159C176.45 11.6364 177.729 10.8295 179.24 10.2955C180.751 9.75 182.422 9.47727 184.251 9.47727C185.513 9.47727 186.768 9.625 188.018 9.92045C189.268 10.2159 190.411 10.7045 191.445 11.3864C192.479 12.0568 193.308 12.9716 193.933 14.1307C194.57 15.2898 194.888 16.7386 194.888 18.4773V36H188.956V32.4034H188.751C188.376 33.1307 187.848 33.8125 187.166 34.4489C186.496 35.0739 185.649 35.5795 184.626 35.9659C183.615 36.3409 182.428 36.5284 181.064 36.5284ZM182.666 31.9943C183.905 31.9943 184.979 31.75 185.888 31.2614C186.797 30.7614 187.496 30.1023 187.984 29.2841C188.484 28.4659 188.734 27.5739 188.734 26.608V23.5227C188.541 23.6818 188.212 23.8295 187.746 23.9659C187.291 24.1023 186.78 24.2216 186.212 24.3239C185.643 24.4261 185.081 24.517 184.524 24.5966C183.967 24.6761 183.484 24.7443 183.075 24.8011C182.155 24.9261 181.331 25.1307 180.604 25.4148C179.876 25.6989 179.303 26.0966 178.882 26.608C178.462 27.108 178.251 27.7557 178.251 28.5511C178.251 29.6875 178.666 30.5455 179.496 31.125C180.325 31.7045 181.382 31.9943 182.666 31.9943ZM221.786 16.7386L216.161 17.3523C216.001 16.7841 215.723 16.25 215.325 15.75C214.939 15.25 214.416 14.8466 213.757 14.5398C213.098 14.233 212.291 14.0795 211.337 14.0795C210.053 14.0795 208.973 14.358 208.098 14.9148C207.234 15.4716 206.808 16.1932 206.82 17.0795C206.808 17.8409 207.087 18.4602 207.655 18.9375C208.234 19.4148 209.189 19.8068 210.518 20.1136L214.984 21.0682C217.462 21.6023 219.303 22.4489 220.507 23.608C221.723 24.767 222.337 26.2841 222.348 28.1591C222.337 29.8068 221.854 31.2614 220.899 32.5227C219.956 33.7727 218.643 34.75 216.962 35.4545C215.28 36.1591 213.348 36.5114 211.166 36.5114C207.962 36.5114 205.382 35.8409 203.428 34.5C201.473 33.1477 200.308 31.267 199.933 28.858L205.95 28.2784C206.223 29.4602 206.803 30.3523 207.689 30.9545C208.575 31.5568 209.729 31.858 211.149 31.858C212.615 31.858 213.791 31.5568 214.678 30.9545C215.575 30.3523 216.024 29.608 216.024 28.7216C216.024 27.9716 215.734 27.3523 215.155 26.8636C214.587 26.375 213.7 26 212.496 25.7386L208.03 24.8011C205.518 24.2784 203.661 23.3977 202.456 22.1591C201.251 20.9091 200.655 19.3295 200.666 17.4205C200.655 15.8068 201.092 14.4091 201.979 13.2273C202.876 12.0341 204.121 11.1136 205.712 10.4659C207.314 9.80682 209.161 9.47727 211.251 9.47727C214.32 9.47727 216.734 10.1307 218.496 11.4375C220.268 12.7443 221.365 14.5114 221.786 16.7386ZM233.607 20.6591V36H227.436V1.09091H233.47V14.267H233.777C234.391 12.7898 235.339 11.625 236.624 10.7727C237.919 9.90909 239.567 9.47727 241.567 9.47727C243.385 9.47727 244.97 9.85795 246.322 10.6193C247.675 11.3807 248.72 12.4943 249.459 13.9602C250.209 15.4261 250.584 17.2159 250.584 19.3295V36H244.413V20.2841C244.413 18.5227 243.959 17.1534 243.05 16.1761C242.152 15.1875 240.891 14.6932 239.266 14.6932C238.175 14.6932 237.197 14.9318 236.334 15.4091C235.482 15.875 234.811 16.5511 234.322 17.4375C233.845 18.3239 233.607 19.3977 233.607 20.6591Z" fill="white"/>
</svg>
