<svg width="30" height="31" viewBox="0 0 30 31" fill="none" xmlns="http://www.w3.org/2000/svg">
<path d="M0 15.6101C0 7.3258 6.71573 0.584717 15 0.584717V0.584717C23.2843 0.584717 30 7.3258 30 15.6101V15.6101C30 23.8943 23.2843 30.6354 15 30.6354V30.6354C6.71573 30.6354 0 23.8943 0 15.6101V15.6101Z" fill="white"/>
<path d="M20.4863 15.6661C20.4863 16.1251 20.1142 16.4971 19.6553 16.4971H9.69446C9.23555 16.4971 8.86353 16.1251 8.86353 15.6661V15.6661C8.86353 15.2072 9.23555 14.8352 9.69446 14.8352H19.6553C20.1142 14.8352 20.4863 15.2072 20.4863 15.6661V15.6661Z" fill="#0C0D0D"/>
</svg>
