<svg width="30" height="31" viewBox="0 0 30 31" fill="none" xmlns="http://www.w3.org/2000/svg">
<path d="M15 0.500244C23.2843 0.500244 30 7.24133 30 15.5256V15.5256C30 23.8099 23.2843 30.5509 15 30.5509V30.5509C6.71573 30.5509 -8.9407e-07 23.8099 -8.9407e-07 15.5256V15.5256C-8.9407e-07 7.24133 6.71573 0.500244 15 0.500244V0.500244Z" fill="white"/>
<path d="M14.9432 21.1451C14.4845 21.1451 14.1127 20.7733 14.1127 20.3147V18.4903C14.1127 17.1149 12.9977 15.9999 11.6222 15.9999H9.98964C9.51586 15.9999 9.13179 15.6158 9.13179 15.142V15.142C9.13179 14.6682 9.51586 14.2842 9.98964 14.2842H11.6222C12.9977 14.2842 14.1127 13.1691 14.1127 11.7937V9.96937C14.1127 9.51072 14.4845 9.13892 14.9432 9.13892V9.13892C15.4018 9.13892 15.7736 9.51072 15.7736 9.96937V11.7937C15.7736 13.1691 16.8886 14.2842 18.2641 14.2842H19.8967C20.3704 14.2842 20.7545 14.6682 20.7545 15.142V15.142C20.7545 15.6158 20.3704 15.9999 19.8967 15.9999H18.2641C16.8886 15.9999 15.7736 17.1149 15.7736 18.4903V20.3147C15.7736 20.7733 15.4018 21.1451 14.9432 21.1451V21.1451Z" fill="#0C0D0D"/>
</svg>
